<?xml version="1.0" standalone="no"?>
<!DOCTYPE svg PUBLIC "-//W3C//DTD SVG 20010904//EN"
 "http://www.w3.org/TR/2001/REC-SVG-20010904/DTD/svg10.dtd">
<svg version="1.0" xmlns="http://www.w3.org/2000/svg"
 width="260.000000pt" height="260.000000pt" viewBox="0 0 260.000000 260.000000"
 preserveAspectRatio="xMidYMid meet">
<metadata>
Created by potrace 1.14, written by Peter Selinger 2001-2017
</metadata>
<g transform="translate(0.000000,260.000000) scale(0.100000,-0.100000)"
fill="#000000" stroke="none">
<path d="M930 2340 l0 -70 65 0 65 0 0 70 0 70 -65 0 -65 0 0 -70z"/>
<path d="M1410 2340 l0 -70 70 0 70 0 0 70 0 70 -70 0 -70 0 0 -70z"/>
<path d="M1090 2245 c0 -21 -5 -25 -30 -25 -30 0 -30 -1 -30 -55 0 -30 -4 -55
-10 -55 -5 0 -10 -7 -10 -15 0 -10 -10 -15 -30 -15 -20 0 -30 5 -30 15 0 13
-22 15 -135 15 -113 0 -135 -2 -135 -15 0 -8 -7 -15 -15 -15 -8 0 -15 -7 -15
-15 0 -8 -4 -15 -10 -15 -6 0 -10 -52 -10 -135 l0 -135 -30 0 c-25 0 -30 -4
-30 -25 0 -14 -4 -25 -10 -25 -5 0 -10 18 -10 40 l0 40 -70 0 -70 0 0 -70 0
-70 70 0 c40 0 70 -4 70 -10 0 -5 -7 -10 -15 -10 -8 0 -15 -7 -15 -15 0 -8 -7
-15 -15 -15 -12 0 -15 -13 -15 -55 0 -30 -4 -55 -10 -55 -6 0 -10 -73 -10
-200 0 -127 4 -200 10 -200 6 0 10 -25 10 -55 0 -42 3 -55 15 -55 8 0 15 -7
15 -15 0 -8 7 -15 15 -15 11 0 15 -11 15 -40 0 -22 5 -40 10 -40 6 0 10 -13
10 -30 0 -27 3 -30 30 -30 25 0 30 -4 30 -25 0 -14 5 -25 10 -25 6 0 10 -7 10
-15 0 -8 7 -15 15 -15 8 0 15 -4 15 -10 0 -5 7 -10 15 -10 8 0 15 -7 15 -15 0
-8 7 -15 15 -15 8 0 15 -5 15 -11 0 -19 28 -39 54 -39 16 0 26 -6 26 -15 0 -8
5 -15 10 -15 6 0 10 -7 10 -15 0 -10 10 -15 30 -15 20 0 30 -5 30 -15 0 -9 9
-15 25 -15 14 0 25 -4 25 -10 0 -5 7 -10 15 -10 11 0 15 -11 15 -40 0 -28 -4
-40 -14 -40 -8 0 -17 6 -20 13 -5 9 -7 9 -12 0 -3 -7 -19 -13 -35 -13 -24 0
-29 4 -29 25 0 16 -6 25 -15 25 -9 0 -15 -9 -15 -25 0 -14 -4 -25 -10 -25 -6
0 -10 -83 -10 -230 l0 -230 475 0 475 0 0 230 c0 198 -2 230 -15 230 -9 0 -15
9 -15 25 0 16 -6 25 -15 25 -9 0 -15 -9 -15 -25 0 -20 -5 -25 -25 -25 -14 0
-25 5 -25 10 0 6 -7 10 -15 10 -8 0 -15 -4 -15 -10 0 -5 -7 -10 -15 -10 -11 0
-15 11 -15 40 0 29 4 40 15 40 8 0 15 5 15 10 0 6 11 10 25 10 16 0 25 6 25
15 0 10 10 15 30 15 20 0 30 5 30 15 0 9 9 15 25 15 16 0 25 6 25 15 0 8 7 15
15 15 9 0 15 9 15 25 0 16 6 25 15 25 8 0 15 5 15 11 0 14 25 39 39 39 6 0 11
7 11 15 0 9 9 15 25 15 20 0 25 5 25 25 0 16 6 25 15 25 10 0 15 10 15 30 0
20 5 30 15 30 9 0 15 9 15 25 0 16 6 25 15 25 10 0 15 10 15 30 0 17 5 30 10
30 6 0 10 11 10 25 0 16 6 25 15 25 12 0 15 14 15 70 0 56 3 70 15 70 13 0 15
20 15 120 0 100 -2 120 -15 120 -12 0 -15 14 -15 70 0 56 -3 70 -15 70 -9 0
-15 9 -15 25 0 14 -4 25 -10 25 -5 0 -10 11 -10 25 0 16 -6 25 -15 25 -10 0
-15 10 -15 30 0 20 -5 30 -15 30 -9 0 -15 9 -15 25 0 16 -6 25 -15 25 -10 0
-15 10 -15 30 0 25 -4 30 -25 30 -14 0 -25 5 -25 10 0 6 -7 10 -15 10 -8 0
-15 7 -15 15 0 8 -4 15 -10 15 -6 0 -10 33 -10 80 0 64 -3 80 -15 80 -8 0 -15
7 -15 15 0 11 -11 15 -40 15 -29 0 -40 4 -40 15 0 12 -16 15 -80 15 -64 0 -80
-3 -80 -15 0 -8 -7 -15 -15 -15 -8 0 -15 7 -15 15 0 12 -13 15 -55 15 l-55 0
0 55 c0 32 -4 55 -11 55 -14 0 -39 25 -39 39 0 6 -20 11 -45 11 -33 0 -45 -4
-45 -15 0 -9 -9 -15 -25 -15 -16 0 -25 6 -25 15 0 12 -16 15 -80 15 -79 0 -80
0 -80 -25z"/>
</g>
</svg>
